<svg width="76" height="76" viewBox="0 0 76 76" fill="none" xmlns="http://www.w3.org/2000/svg">
<path fill-rule="evenodd" clip-rule="evenodd" d="M38.1402 75.4105C17.3287 75.4105 0.458374 58.5392 0.458374 37.7282C0.458374 16.9172 17.3287 0.0458984 38.1402 0.0458984C58.9517 0.0458984 75.8225 16.9167 75.8225 37.7282C75.8225 58.5397 58.9517 75.4105 38.1402 75.4105Z" fill="white"/>
<path fill-rule="evenodd" clip-rule="evenodd" d="M50.3191 40.5389C51.784 37.0977 52.5275 33.9784 52.5275 31.2643C52.5275 23.3472 46.0735 16.9054 38.141 16.9054C30.2084 16.9054 23.7544 23.3467 23.7544 31.2643C23.7544 33.9784 24.4979 37.0982 25.9637 40.5389C27.1271 43.2689 28.7468 46.2105 30.7774 49.282C33.4474 53.3188 36.1404 56.5264 37.2417 57.7938H30.306C30.0339 57.7938 29.812 57.9632 29.812 58.1724C29.812 58.3816 30.0339 58.5509 30.306 58.5509H46.733C47.006 58.5509 47.227 58.3816 47.227 58.1724C47.227 57.9632 47.006 57.7938 46.733 57.7938H39.0397C40.1416 56.5264 42.8345 53.3193 45.5045 49.282C47.5361 46.2105 49.1549 43.2693 50.3191 40.5389ZM38.1958 33.3371C37.9036 33.3371 37.6658 33.6345 37.6658 33.9999V42.3368C36.7442 42.0337 35.8769 41.5854 35.0967 41.0089C33.2912 39.6607 32.3755 37.8525 32.3755 35.6328C32.3755 30.9786 36.4232 24.7765 37.7629 22.8514C39.1026 24.7756 43.1493 30.9763 43.1493 35.6328C43.1493 37.8525 42.2346 39.6607 40.4291 41.0089C39.8992 41.4007 39.3279 41.7333 38.7254 42.0005V33.9999C38.7254 33.6341 38.4881 33.3371 38.1958 33.3371ZM38.7254 56.601V43.1089C39.548 42.7882 40.325 42.361 41.0366 41.8382C42.479 40.7711 44.1986 38.8281 44.1986 35.6328C44.1986 29.7534 38.4323 21.9874 38.1874 21.659C38.1377 21.5937 38.0736 21.5407 38 21.5043C37.9264 21.468 37.8454 21.4491 37.7634 21.4493C37.595 21.4493 37.4369 21.5281 37.3393 21.659C37.093 21.9874 31.3272 29.7534 31.3272 35.6328C31.3272 38.8281 33.0473 40.7711 34.4901 41.8382C36.0339 42.9813 37.5673 43.374 37.632 43.3904C37.6433 43.3932 37.655 43.3927 37.6663 43.3946V56.729C36.4274 55.2791 34.0117 52.33 31.6189 48.7102C27.1392 41.9353 24.7718 35.902 24.7718 31.2638C24.7718 23.9064 30.7699 17.92 38.1414 17.92C45.5139 17.92 51.512 23.9064 51.512 31.2638C51.512 35.902 49.1436 41.9348 44.6649 48.7102C42.3373 52.2296 39.9933 55.1107 38.7254 56.601Z" fill="#F75243" stroke="url(#paint0_linear_1_797)"/>
<defs>
<linearGradient id="paint0_linear_1_797" x1="25.6013" y1="33.237" x2="53.7964" y2="34.7395" gradientUnits="userSpaceOnUse">
<stop stop-color="#FA6C58"/>
<stop offset="0.9995" stop-color="#FA9158"/>
<stop offset="0.9996" stop-color="#FA9258"/>
<stop offset="0.9997" stop-color="#FA9258"/>
<stop offset="0.9998" stop-color="#FA6C58" stop-opacity="0"/>
<stop offset="0.9999" stop-color="#FA6C58"/>
</linearGradient>
</defs>
</svg>
