<svg width="76" height="76" viewBox="0 0 76 76" fill="none" xmlns="http://www.w3.org/2000/svg">
<path fill-rule="evenodd" clip-rule="evenodd" d="M38.2527 75.4105C17.4412 75.4105 0.570923 58.5392 0.570923 37.7282C0.570923 16.9172 17.4412 0.0458984 38.2527 0.0458984C59.0642 0.0458984 75.935 16.9167 75.935 37.7282C75.935 58.5397 59.0642 75.4105 38.2527 75.4105Z" fill="white"/>
<path d="M53.3629 28.9925C47.7644 23.3739 39.8511 21.7223 34.0374 24.9327C32.716 24.4134 31.3018 24.6193 30.2923 25.4552C29.3485 25.0016 28.7209 24.2825 28.309 23.5555L28.3222 23.419L28.2274 23.4077C27.6242 22.266 27.5252 21.1636 27.5238 21.1444C27.505 20.9024 27.2996 20.7269 27.0505 20.7382C26.934 20.7469 26.8257 20.8016 26.7494 20.8902C26.6731 20.9788 26.6352 21.094 26.6438 21.2105C26.6495 21.2884 26.7297 22.2364 27.2006 23.3331C25.9285 23.32 23.1483 23.5433 20.8596 25.5073C18.7558 27.3128 17.6244 30.115 17.4968 33.8353L17.4823 34.2443L17.889 34.2893C17.9237 34.2931 18.1456 34.3156 18.5044 34.3156C19.6476 34.3156 22.1745 34.0839 24.4106 32.2653C26.4102 30.6385 27.6589 28.1524 28.1463 24.882C28.5682 25.3912 29.0834 25.8153 29.6642 26.1316C28.9765 27.1237 28.8377 28.4376 29.3185 29.6685C28.0332 32.0143 27.5097 34.7973 27.8038 37.7319C27.8182 37.8461 27.8767 37.9503 27.9667 38.022C28.0568 38.0938 28.1713 38.1275 28.2859 38.116C28.4005 38.1045 28.5061 38.0487 28.58 37.9604C28.654 37.8722 28.6906 37.7585 28.682 37.6437C28.3982 34.8123 28.9198 32.14 30.1914 29.9147L30.3031 29.7191L30.2107 29.5137C29.6891 28.3593 29.8701 27.0928 30.6718 26.2874C31.4739 25.4838 32.7348 25.3032 33.8826 25.8244L34.0885 25.9182L34.2851 25.8051C39.6846 22.7008 47.445 24.3027 52.7381 29.615C58.0325 34.9287 59.6278 42.7186 56.5334 48.1369L56.4217 48.3325L56.5141 48.5375C57.0357 49.6933 56.8551 50.9589 56.0526 51.7638C55.2518 52.5669 53.9914 52.7498 52.8422 52.2268L52.6358 52.1335L52.4397 52.246C48.9249 54.2677 44.3275 54.3578 39.998 52.5256C44.1549 49.9447 46.9393 45.3412 46.9393 40.0862V39.6448H17.7764V40.0862C17.7764 48.1547 24.3177 54.719 32.3581 54.719C34.6909 54.7187 36.9888 54.1529 39.0551 53.0702C41.4094 54.1655 43.8613 54.7176 46.2137 54.7176C48.5328 54.7176 50.7543 54.1852 52.6879 53.1199C54.1176 53.6819 55.6646 53.4042 56.6774 52.3877C57.692 51.3703 57.9673 49.82 57.4063 48.3841C60.6054 42.5502 58.9613 34.6111 53.3629 28.9925ZM23.8641 31.5724C21.7809 33.2719 19.3628 33.4562 18.3989 33.4295C18.586 30.1887 19.6039 27.7523 21.4272 26.1832C23.5798 24.3304 26.3061 24.1948 27.354 24.2201C26.9605 27.5313 25.7873 30.0034 23.8641 31.5724ZM32.3576 53.8357C24.9509 53.8357 18.8984 47.9057 18.6653 40.5271H46.05C45.8173 47.9057 39.7648 53.8357 32.3576 53.8357Z" fill="#0C8C6C" stroke="url(#paint0_linear_1_809)"/>
<path d="M53.7299 47.0319C53.8315 47.0898 53.9519 47.1051 54.0648 47.0743C54.1776 47.0435 54.2736 46.9692 54.3317 46.8677C56.8661 42.4307 55.4416 35.9345 50.9436 31.421C48.0381 28.5057 44.1321 26.765 40.4959 26.765C40.3789 26.765 40.2668 26.8114 40.1841 26.8941C40.1014 26.9768 40.0549 27.0889 40.0549 27.2059C40.0549 27.3228 40.1014 27.435 40.1841 27.5177C40.2668 27.6004 40.3789 27.6468 40.4959 27.6468C43.9032 27.6468 47.5756 29.2905 50.3193 32.0435C54.5409 36.2806 55.9069 42.3313 53.5662 46.4296C53.5373 46.4799 53.5187 46.5353 53.5113 46.5928C53.5039 46.6503 53.5079 46.7087 53.5231 46.7647C53.5384 46.8206 53.5644 46.873 53.5999 46.9188C53.6354 46.9647 53.6796 47.0031 53.7299 47.0319Z" fill="#0C8C6C" stroke="url(#paint1_linear_1_809)"/>
<defs>
<linearGradient id="paint0_linear_1_809" x1="20.1489" y1="34.0637" x2="60.6126" y2="37.8791" gradientUnits="userSpaceOnUse">
<stop stop-color="#FA6C58"/>
<stop offset="0.9995" stop-color="#FA9158"/>
<stop offset="0.9996" stop-color="#FA9258"/>
<stop offset="0.9997" stop-color="#FA9258"/>
<stop offset="0.9998" stop-color="#FA6C58" stop-opacity="0"/>
<stop offset="0.9999" stop-color="#FA6C58"/>
</linearGradient>
<linearGradient id="paint1_linear_1_809" x1="41.0514" y1="34.7355" x2="56.2543" y2="35.6311" gradientUnits="userSpaceOnUse">
<stop stop-color="#FA6C58"/>
<stop offset="0.9995" stop-color="#FA9158"/>
<stop offset="0.9996" stop-color="#FA9258"/>
<stop offset="0.9997" stop-color="#FA9258"/>
<stop offset="0.9998" stop-color="#FA6C58" stop-opacity="0"/>
<stop offset="0.9999" stop-color="#FA6C58"/>
</linearGradient>
</defs>
</svg>
