<svg width="77" height="76" viewBox="0 0 77 76" fill="none" xmlns="http://www.w3.org/2000/svg">
<path fill-rule="evenodd" clip-rule="evenodd" d="M38.6122 75.4105C17.8007 75.4105 0.93042 58.5392 0.93042 37.7282C0.93042 16.9172 17.8007 0.0458984 38.6122 0.0458984C59.4237 0.0458984 76.2945 16.9167 76.2945 37.7282C76.2945 58.5397 59.4237 75.4105 38.6122 75.4105Z" fill="white"/>
<path d="M38.14 57.3174C38.025 57.3173 37.9148 57.2715 37.8335 57.1902C37.7522 57.1088 37.7066 56.9985 37.7066 56.8835V48.7394L24.223 38.704C24.1308 38.6352 24.0697 38.5327 24.0529 38.4189C24.0362 38.3052 24.0653 38.1894 24.1339 38.097C24.2029 38.0051 24.3053 37.9442 24.419 37.9275C24.5327 37.9109 24.6484 37.9397 24.7409 38.0079L37.7061 47.6582V23.9112C37.7034 23.8526 37.7126 23.794 37.7331 23.7391C37.7537 23.6841 37.7852 23.6339 37.8257 23.5915C37.8662 23.549 37.9149 23.5152 37.9689 23.4921C38.0228 23.4691 38.0809 23.4572 38.1395 23.4572C38.1982 23.4572 38.2563 23.4691 38.3102 23.4921C38.3642 23.5152 38.4129 23.549 38.4534 23.5915C38.4939 23.6339 38.5254 23.6841 38.546 23.7391C38.5665 23.794 38.5757 23.8526 38.573 23.9112V50.2067L50.2412 38.9855C50.2823 38.946 50.3308 38.915 50.3839 38.8942C50.4369 38.8734 50.4936 38.8633 50.5505 38.8645C50.6075 38.8656 50.6637 38.878 50.7159 38.9008C50.7681 38.9237 50.8153 38.9566 50.8548 38.9976C50.8943 39.0387 50.9253 39.0872 50.946 39.1403C50.9668 39.1933 50.9769 39.25 50.9758 39.307C50.9746 39.3639 50.9623 39.4201 50.9394 39.4723C50.9166 39.5245 50.8837 39.5717 50.8426 39.6112L38.5978 51.3874C38.5899 51.3949 38.5816 51.4021 38.573 51.4089V56.8845C38.573 56.9993 38.5274 57.1094 38.4462 57.1906C38.365 57.2718 38.2548 57.3174 38.14 57.3174Z" fill="#0C8C6C" stroke="url(#paint0_linear_1_817)"/>
<path d="M37.8265 38.6325C37.8097 38.6325 37.793 38.6315 37.7763 38.6297C35.5421 38.375 31.2698 34.7073 31.2698 29.72C31.2698 25.1813 34.3418 20.2222 38.4161 18.1845C38.4898 18.1479 38.5723 18.1328 38.6542 18.1411C38.736 18.1494 38.8139 18.1807 38.8787 18.2314C42.4877 21.0679 45.0151 25.4252 45.1671 29.0741C45.3303 32.9947 42.909 36.5784 40.4369 38.3914C40.391 38.425 40.3388 38.4493 40.2835 38.4627C40.2282 38.4762 40.1707 38.4787 40.1145 38.47C40.0582 38.4613 40.0042 38.4416 39.9555 38.412C39.9069 38.3824 39.8645 38.3435 39.8309 38.2976C39.7972 38.2516 39.773 38.1995 39.7595 38.1441C39.746 38.0888 39.7436 38.0314 39.7523 37.9751C39.761 37.9188 39.7807 37.8648 39.8103 37.8162C39.8399 37.7675 39.8787 37.7251 39.9247 37.6915C42.2105 36.015 44.4503 32.7109 44.3007 29.1098C44.1619 25.7723 41.8662 21.7762 38.5602 19.087C34.9394 21.037 32.1371 25.6475 32.1371 29.7196C32.1371 34.2443 36.1721 37.5733 37.8753 37.767C37.9895 37.7801 38.0938 37.838 38.1654 37.928C38.2369 38.018 38.2697 38.1327 38.2567 38.2469C38.2449 38.3528 38.1945 38.4507 38.1152 38.5218C38.0358 38.5929 37.9331 38.6323 37.8265 38.6325Z" fill="#0C8C6C" stroke="url(#paint1_linear_1_817)"/>
<path d="M47.4554 48.4381C46.665 48.4381 45.8362 48.3602 44.9698 48.2036C44.9138 48.1935 44.8603 48.1724 44.8124 48.1417C44.7645 48.1109 44.7231 48.071 44.6907 48.0242C44.6582 47.9775 44.6353 47.9248 44.6231 47.8691C44.611 47.8135 44.61 47.756 44.6201 47.7C44.6302 47.644 44.6513 47.5905 44.682 47.5426C44.7128 47.4947 44.7527 47.4534 44.7995 47.4209C44.8462 47.3884 44.8989 47.3655 44.9545 47.3534C45.0102 47.3413 45.0676 47.3402 45.1237 47.3503C48.4006 47.9428 51.0814 47.3344 53.0905 45.5425C56.9603 42.0896 57.3084 35.1675 57.3309 33.4427C51.2953 33.3437 47.1079 34.8373 44.9379 37.8586C42.5362 41.204 43.4993 45.1865 43.5551 45.3929C43.5982 45.4834 43.6086 45.5862 43.5844 45.6836C43.5602 45.7809 43.5029 45.8669 43.4223 45.9267C43.3299 45.9951 43.2142 46.0241 43.1004 46.0074C42.9867 45.9907 42.8842 45.9296 42.8153 45.8376C42.6043 45.5538 41.8167 41.8058 43.5593 38.451C45.0186 35.6417 48.6886 32.3455 57.7742 32.5847C57.8821 32.5875 57.985 32.6305 58.0629 32.7052C58.1409 32.7799 58.1881 32.8809 58.1954 32.9886C58.201 33.0749 58.4834 41.8804 53.6782 46.1809C51.9994 47.6829 49.9134 48.4381 47.4554 48.4381Z" fill="#0C8C6C" stroke="url(#paint2_linear_1_817)"/>
<path d="M31.2582 48.3124C29.4546 48.3124 26.4694 47.9508 23.8885 45.9286C20.7945 43.5039 19.1584 39.4277 19.0247 33.8128C19.0221 33.7108 19.0557 33.6111 19.1195 33.5314C19.1832 33.4517 19.2731 33.397 19.3732 33.377C24.2919 32.3967 28.8026 33.3189 31.7469 35.9035C34.1979 38.0551 35.364 41.1393 35.1182 44.8225C35.1013 45.0613 34.8888 45.2353 34.6566 45.2264C34.5419 45.2187 34.4349 45.1657 34.3592 45.0792C34.2834 44.9926 34.2452 44.8796 34.2528 44.7648C34.4793 41.3612 33.4155 38.5228 31.1742 36.556C28.5061 34.2129 24.4101 33.3475 19.9023 34.1599C20.0871 39.2649 21.5816 42.9729 24.3468 45.1856C28.0201 48.1248 32.6668 47.3616 32.7118 47.3527C32.8241 47.3307 32.9406 47.3535 33.0362 47.4163C33.1319 47.4791 33.1991 47.5768 33.2236 47.6886C33.2478 47.7999 33.2269 47.9162 33.1656 48.0122C33.1042 48.1082 33.0074 48.176 32.8962 48.2008C32.8798 48.2036 32.2465 48.3124 31.2582 48.3124Z" fill="#0C8C6C" stroke="url(#paint3_linear_1_817)"/>
<defs>
<linearGradient id="paint0_linear_1_817" x1="25.7768" y1="36.7357" x2="52.1391" y2="38.3527" gradientUnits="userSpaceOnUse">
<stop stop-color="#FA6C58"/>
<stop offset="0.9995" stop-color="#FA9158"/>
<stop offset="0.9996" stop-color="#FA9258"/>
<stop offset="0.9997" stop-color="#FA9258"/>
<stop offset="0.9998" stop-color="#FA6C58" stop-opacity="0"/>
<stop offset="0.9999" stop-color="#FA6C58"/>
</linearGradient>
<linearGradient id="paint1_linear_1_817" x1="32.1623" y1="26.1756" x2="45.7895" y2="26.8888" gradientUnits="userSpaceOnUse">
<stop stop-color="#FA6C58"/>
<stop offset="0.9995" stop-color="#FA9158"/>
<stop offset="0.9996" stop-color="#FA9258"/>
<stop offset="0.9997" stop-color="#FA9258"/>
<stop offset="0.9998" stop-color="#FA6C58" stop-opacity="0"/>
<stop offset="0.9999" stop-color="#FA6C58"/>
</linearGradient>
<linearGradient id="paint2_linear_1_817" x1="43.4653" y1="38.7943" x2="58.8482" y2="39.9718" gradientUnits="userSpaceOnUse">
<stop stop-color="#FA6C58"/>
<stop offset="0.9995" stop-color="#FA9158"/>
<stop offset="0.9996" stop-color="#FA9258"/>
<stop offset="0.9997" stop-color="#FA9258"/>
<stop offset="0.9998" stop-color="#FA6C58" stop-opacity="0"/>
<stop offset="0.9999" stop-color="#FA6C58"/>
</linearGradient>
<linearGradient id="paint3_linear_1_817" x1="20.0596" y1="39.0012" x2="35.8026" y2="40.2794" gradientUnits="userSpaceOnUse">
<stop stop-color="#FA6C58"/>
<stop offset="0.9995" stop-color="#FA9158"/>
<stop offset="0.9996" stop-color="#FA9258"/>
<stop offset="0.9997" stop-color="#FA9258"/>
<stop offset="0.9998" stop-color="#FA6C58" stop-opacity="0"/>
<stop offset="0.9999" stop-color="#FA6C58"/>
</linearGradient>
</defs>
</svg>
