<svg width="13" height="18" viewBox="0 0 13 18" fill="none" xmlns="http://www.w3.org/2000/svg">
<g clip-path="url(#clip0_1_683)">
<path d="M8.25098 1.50037V5.83469H11.251" stroke="white" stroke-linecap="round" stroke-linejoin="round"/>
<path d="M11.751 0.777588L8.25098 5.8343" stroke="white" stroke-linecap="round" stroke-linejoin="round"/>
<path d="M11.2487 12.2782V14.4454C11.2493 14.6466 11.2208 14.8457 11.165 15.03C11.1092 15.2144 11.0274 15.3799 10.9248 15.5159C10.8222 15.6519 10.701 15.7554 10.5691 15.8199C10.4372 15.8843 10.2974 15.9083 10.1587 15.8902C8.62016 15.6486 7.14225 14.889 5.84375 13.6724C4.63566 12.5633 3.61141 11.0835 2.84375 9.3381C1.99873 7.45354 1.47287 5.3079 1.30875 3.075C1.29625 2.87523 1.31268 2.6739 1.357 2.48381C1.40131 2.29373 1.47253 2.11905 1.56613 1.97092C1.65973 1.82278 1.77365 1.70442 1.90064 1.62338C2.02763 1.54233 2.16492 1.50038 2.30375 1.50019H3.80375C4.0464 1.49674 4.28164 1.62089 4.46563 1.84949C4.64961 2.07809 4.76978 2.39555 4.80375 2.7427C4.86706 3.43624 4.98447 4.11721 5.15375 4.77261C5.22102 5.03117 5.23558 5.31217 5.1957 5.58232C5.15582 5.85247 5.06318 6.10044 4.92875 6.29685L4.29375 7.21428C5.00552 9.02281 6.04197 10.5203 7.29375 11.5486L7.92875 10.6312C8.06469 10.437 8.23632 10.3031 8.42331 10.2455C8.61029 10.1879 8.80478 10.2089 8.98375 10.3061C9.43738 10.5507 9.90871 10.7203 10.3887 10.8118C10.6316 10.8613 10.8534 11.038 11.012 11.3084C11.1706 11.5788 11.2548 11.9239 11.2487 12.2782Z" stroke="white" stroke-linecap="round" stroke-linejoin="round"/>
</g>
<defs>
<clipPath id="clip0_1_683">
<rect width="12" height="17.3373" fill="white" transform="translate(0.25 0.0554199)"/>
</clipPath>
</defs>
</svg>
