<svg width="25" height="25" viewBox="0 0 25 25" fill="none" xmlns="http://www.w3.org/2000/svg">
<path d="M12.7506 7.24126C10.0264 7.24126 7.82904 9.43861 7.82904 12.1628C7.82904 14.887 10.0264 17.0843 12.7506 17.0843C15.4748 17.0843 17.6721 14.887 17.6721 12.1628C17.6721 9.43861 15.4748 7.24126 12.7506 7.24126ZM12.7506 15.3624C10.9901 15.3624 9.55094 13.9275 9.55094 12.1628C9.55094 10.3981 10.9859 8.96316 12.7506 8.96316C14.5153 8.96316 15.9502 10.3981 15.9502 12.1628C15.9502 13.9275 14.511 15.3624 12.7506 15.3624ZM19.0214 7.03994C19.0214 7.67816 18.5074 8.18788 17.8734 8.18788C17.2352 8.18788 16.7255 7.67388 16.7255 7.03994C16.7255 6.40601 17.2395 5.89201 17.8734 5.89201C18.5074 5.89201 19.0214 6.40601 19.0214 7.03994ZM22.281 8.20501C22.2082 6.6673 21.8569 5.3052 20.7304 4.18297C19.6082 3.06074 18.2461 2.7095 16.7084 2.6324C15.1235 2.54245 10.3733 2.54245 8.78851 2.6324C7.25507 2.70522 5.89298 3.05645 4.76646 4.17868C3.63995 5.30091 3.293 6.66301 3.2159 8.20073C3.12595 9.78556 3.12595 14.5358 3.2159 16.1206C3.28872 17.6583 3.63995 19.0204 4.76646 20.1426C5.89298 21.2649 7.25079 21.6161 8.78851 21.6932C10.3733 21.7831 15.1235 21.7831 16.7084 21.6932C18.2461 21.6204 19.6082 21.2691 20.7304 20.1426C21.8526 19.0204 22.2039 17.6583 22.281 16.1206C22.3709 14.5358 22.3709 9.78984 22.281 8.20501ZM20.2335 17.8211C19.8994 18.6606 19.2527 19.3074 18.4089 19.6458C17.1453 20.1469 14.1469 20.0313 12.7506 20.0313C11.3542 20.0313 8.35161 20.1426 7.09231 19.6458C6.25278 19.3117 5.60599 18.6649 5.26761 17.8211C4.76646 16.5575 4.88211 13.5592 4.88211 12.1628C4.88211 10.7664 4.77075 7.76383 5.26761 6.50453C5.60171 5.665 6.24849 5.01822 7.09231 4.67983C8.35589 4.17868 11.3542 4.29433 12.7506 4.29433C14.1469 4.29433 17.1496 4.18297 18.4089 4.67983C19.2484 5.01393 19.8952 5.66071 20.2335 6.50453C20.7347 7.76811 20.619 10.7664 20.619 12.1628C20.619 13.5592 20.7347 16.5618 20.2335 17.8211Z" fill="white"/>
</svg>
