<svg width="80" height="22" viewBox="0 0 80 22" fill="none" xmlns="http://www.w3.org/2000/svg">
<rect x="0.55957" y="0.451172" width="76.5248" height="20.2837" rx="2" fill="#121212"/>
<path d="M79.8506 10.5925L75.0102 15.3832L75.0102 5.80168L79.8506 10.5925Z" fill="#121212"/>
<path d="M13.4735 15.3217C12.6495 15.3217 11.9255 15.1417 11.3015 14.7817C10.6855 14.4137 10.2015 13.9017 9.84953 13.2457C9.50553 12.5897 9.33353 11.8337 9.33353 10.9777C9.33353 10.1217 9.50553 9.36973 9.84953 8.72173C10.2015 8.06573 10.6855 7.55373 11.3015 7.18573C11.9255 6.81773 12.6495 6.63373 13.4735 6.63373C14.3055 6.63373 15.0295 6.81773 15.6455 7.18573C16.2695 7.55373 16.7535 8.06573 17.0975 8.72173C17.4415 9.36973 17.6135 10.1217 17.6135 10.9777C17.6135 11.8337 17.4415 12.5897 17.0975 13.2457C16.7535 13.8937 16.2815 14.3977 15.6815 14.7577L17.8055 16.7977H16.4975L14.7935 15.1417C14.3855 15.2617 13.9455 15.3217 13.4735 15.3217ZM13.4735 14.4337C14.0895 14.4337 14.6295 14.2977 15.0935 14.0257C15.5655 13.7457 15.9295 13.3497 16.1855 12.8377C16.4495 12.3177 16.5815 11.6977 16.5815 10.9777C16.5815 10.2577 16.4495 9.64173 16.1855 9.12973C15.9295 8.61773 15.5655 8.22573 15.0935 7.95373C14.6295 7.67373 14.0895 7.53373 13.4735 7.53373C12.8575 7.53373 12.3135 7.67373 11.8415 7.95373C11.3775 8.22573 11.0135 8.61773 10.7495 9.12973C10.4935 9.64173 10.3655 10.2577 10.3655 10.9777C10.3655 11.6977 10.4935 12.3177 10.7495 12.8377C11.0135 13.3497 11.3775 13.7457 11.8415 14.0257C12.3135 14.2977 12.8575 14.4337 13.4735 14.4337ZM21.2734 15.3217C20.5694 15.3217 20.0094 15.1097 19.5934 14.6857C19.1774 14.2537 18.9694 13.5937 18.9694 12.7057V9.22573H19.9774V12.5977C19.9774 13.8377 20.4854 14.4577 21.5014 14.4577C22.0214 14.4577 22.4494 14.2737 22.7854 13.9057C23.1294 13.5297 23.3014 12.9977 23.3014 12.3097V9.22573H24.3094V15.1777H23.3974L23.3254 14.1097C23.1414 14.4857 22.8654 14.7817 22.4974 14.9977C22.1374 15.2137 21.7294 15.3217 21.2734 15.3217ZM26.5806 7.90573C26.3806 7.90573 26.2126 7.84173 26.0766 7.71373C25.9486 7.57773 25.8846 7.40973 25.8846 7.20973C25.8846 7.01773 25.9486 6.85773 26.0766 6.72973C26.2126 6.60173 26.3806 6.53773 26.5806 6.53773C26.7726 6.53773 26.9366 6.60173 27.0726 6.72973C27.2086 6.85773 27.2766 7.01773 27.2766 7.20973C27.2766 7.40973 27.2086 7.57773 27.0726 7.71373C26.9366 7.84173 26.7726 7.90573 26.5806 7.90573ZM26.0766 15.1777V9.22573H27.0846V15.1777H26.0766ZM31.5757 15.3217C31.0077 15.3217 30.4957 15.1937 30.0397 14.9377C29.5917 14.6737 29.2357 14.3097 28.9717 13.8457C28.7157 13.3737 28.5877 12.8257 28.5877 12.2017C28.5877 11.5777 28.7157 11.0337 28.9717 10.5697C29.2357 10.0977 29.5917 9.73373 30.0397 9.47773C30.4957 9.21373 31.0077 9.08173 31.5757 9.08173C32.2797 9.08173 32.8717 9.26573 33.3517 9.63373C33.8397 10.0017 34.1477 10.4937 34.2757 11.1097H33.2437C33.1637 10.7417 32.9677 10.4577 32.6557 10.2577C32.3437 10.0497 31.9797 9.94573 31.5637 9.94573C31.2277 9.94573 30.9117 10.0297 30.6157 10.1977C30.3197 10.3657 30.0797 10.6177 29.8957 10.9537C29.7117 11.2897 29.6197 11.7057 29.6197 12.2017C29.6197 12.6977 29.7117 13.1137 29.8957 13.4497C30.0797 13.7857 30.3197 14.0417 30.6157 14.2177C30.9117 14.3857 31.2277 14.4697 31.5637 14.4697C31.9797 14.4697 32.3437 14.3697 32.6557 14.1697C32.9677 13.9617 33.1637 13.6697 33.2437 13.2937H34.2757C34.1557 13.8937 33.8517 14.3817 33.3637 14.7577C32.8757 15.1337 32.2797 15.3217 31.5757 15.3217ZM35.6835 15.1777V6.53773H36.6915V11.7337L39.1275 9.22573H40.3635L37.7235 11.9137L40.6995 15.1777H39.4155L36.6915 12.0937V15.1777H35.6835ZM47.4032 15.1777H46.3352L44.1452 9.15973H45.0392L46.8692 14.1937L48.6992 9.15973H49.5932L47.4032 15.1777ZM50.5872 9.17773H51.4272V15.1777H50.5872V9.17773ZM51.0132 8.12773C50.8772 8.12773 50.7612 8.08373 50.6652 7.99573C50.5732 7.90373 50.5272 7.78973 50.5272 7.65373C50.5272 7.51773 50.5732 7.40573 50.6652 7.31773C50.7612 7.22573 50.8772 7.17973 51.0132 7.17973C51.1452 7.17973 51.2572 7.22573 51.3492 7.31773C51.4452 7.40573 51.4932 7.51773 51.4932 7.65373C51.4932 7.78973 51.4472 7.90373 51.3552 7.99573C51.2632 8.08373 51.1492 8.12773 51.0132 8.12773ZM55.4538 15.3337C54.9018 15.3337 54.3978 15.1917 53.9418 14.9077C53.4898 14.6237 53.1278 14.2437 52.8558 13.7677C52.5878 13.2877 52.4538 12.7577 52.4538 12.1777C52.4538 11.7377 52.5318 11.3277 52.6878 10.9477C52.8438 10.5637 53.0578 10.2277 53.3298 9.93973C53.6058 9.64773 53.9258 9.41973 54.2898 9.25573C54.6538 9.09173 55.0418 9.00973 55.4538 9.00973C55.8978 9.00973 56.3058 9.09773 56.6778 9.27373C57.0538 9.44973 57.3758 9.69573 57.6438 10.0117C57.9158 10.3277 58.1198 10.6977 58.2558 11.1217C58.3958 11.5457 58.4538 12.0037 58.4297 12.4957H53.3418C53.3898 12.8757 53.5098 13.2157 53.7018 13.5157C53.8978 13.8157 54.1458 14.0537 54.4458 14.2297C54.7498 14.4017 55.0858 14.4897 55.4538 14.4937C55.8538 14.4937 56.2138 14.3897 56.5338 14.1817C56.8578 13.9737 57.1178 13.6877 57.3138 13.3237L58.1658 13.5217C57.9258 14.0537 57.5638 14.4897 57.0798 14.8297C56.5958 15.1657 56.0538 15.3337 55.4538 15.3337ZM53.3178 11.8177H57.5838C57.5558 11.4457 57.4418 11.1057 57.2418 10.7977C57.0458 10.4857 56.7918 10.2377 56.4798 10.0537C56.1678 9.86573 55.8258 9.77173 55.4538 9.77173C55.0818 9.77173 54.7418 9.86373 54.4338 10.0477C54.1258 10.2277 53.8738 10.4737 53.6777 10.7857C53.4818 11.0937 53.3618 11.4377 53.3178 11.8177ZM61.7145 15.1777H60.8505L58.8405 9.17773H59.6625L61.2945 14.0137L62.9145 9.17773H63.8025L65.4225 14.0137L67.0425 9.17773H67.8705L65.8605 15.1777H64.9905L63.3465 10.2937L61.7145 15.1777Z" fill="white"/>
</svg>
