<svg width="18" height="19" viewBox="0 0 18 19" fill="none" xmlns="http://www.w3.org/2000/svg">
<path d="M15.63 3.7074C15.2469 3.32416 14.7921 3.02014 14.2915 2.81272C13.7909 2.6053 13.2543 2.49854 12.7125 2.49854C12.1706 2.49854 11.634 2.6053 11.1335 2.81272C10.6329 3.02014 10.178 3.32416 9.79497 3.7074L8.99997 4.5024L8.20497 3.7074C7.4312 2.93364 6.38174 2.49894 5.28747 2.49894C4.19319 2.49894 3.14374 2.93364 2.36997 3.7074C1.5962 4.48117 1.1615 5.53063 1.1615 6.6249C1.1615 7.71918 1.5962 8.76864 2.36997 9.5424L3.16497 10.3374L8.99997 16.1724L14.835 10.3374L15.63 9.5424C16.0132 9.15934 16.3172 8.70451 16.5247 8.20392C16.7321 7.70333 16.8388 7.16677 16.8388 6.6249C16.8388 6.08304 16.7321 5.54648 16.5247 5.04589C16.3172 4.54529 16.0132 4.09047 15.63 3.7074V3.7074Z" stroke="#121212" stroke-width="2" stroke-linecap="round" stroke-linejoin="round"/>
</svg>

