<svg width="13" height="19" viewBox="0 0 13 19" fill="none" xmlns="http://www.w3.org/2000/svg">
<g clip-path="url(#clip0_1_687)">
<path d="M10.75 7.96316C10.75 13.0199 6.25 17.3542 6.25 17.3542C6.25 17.3542 1.75 13.0199 1.75 7.96316C1.75 6.23886 2.22411 4.58518 3.06802 3.36591C3.91193 2.14665 5.05653 1.46167 6.25 1.46167C7.44347 1.46167 8.58807 2.14665 9.43198 3.36591C10.2759 4.58518 10.75 6.23886 10.75 7.96316Z" stroke="white" stroke-linecap="round" stroke-linejoin="round"/>
<path d="M6.25 10.1303C7.07843 10.1303 7.75 9.16008 7.75 7.96318C7.75 6.76629 7.07843 5.79602 6.25 5.79602C5.42157 5.79602 4.75 6.76629 4.75 7.96318C4.75 9.16008 5.42157 10.1303 6.25 10.1303Z" stroke="white" stroke-linecap="round" stroke-linejoin="round"/>
</g>
<defs>
<clipPath id="clip0_1_687">
<rect width="12" height="17.3373" fill="white" transform="translate(0.25 0.739258)"/>
</clipPath>
</defs>
</svg>
