<svg width="25" height="25" viewBox="0 0 25 25" fill="none" xmlns="http://www.w3.org/2000/svg">
<path d="M13.3984 2.56494C9.4515 2.56494 5.55078 5.1962 5.55078 9.45468C5.55078 12.1629 7.07414 13.7016 7.99739 13.7016C8.37823 13.7016 8.5975 12.6399 8.5975 12.3398C8.5975 11.9821 7.68579 11.2204 7.68579 9.73165C7.68579 6.63877 10.0401 4.44606 13.0868 4.44606C15.7065 4.44606 17.6453 5.93479 17.6453 8.66992C17.6453 10.7126 16.8259 14.5441 14.1716 14.5441C13.2137 14.5441 12.3944 13.8516 12.3944 12.8592C12.3944 11.405 13.4099 9.99708 13.4099 8.49681C13.4099 5.95018 9.79772 6.41181 9.79772 9.4893C9.79772 10.1356 9.8785 10.8511 10.167 11.4397C9.63615 13.7247 8.55133 17.1292 8.55133 19.4834C8.55133 20.2105 8.6552 20.926 8.72444 21.6531C8.85524 21.7993 8.78984 21.7839 8.98988 21.7108C10.9287 19.0564 10.8595 18.5371 11.7365 15.0634C12.2097 15.9636 13.433 16.4483 14.4024 16.4483C18.4878 16.4483 20.3227 12.4668 20.3227 8.87765C20.3227 5.05771 17.0221 2.56494 13.3984 2.56494Z" fill="white"/>
</svg>
