<svg width="43" height="43" viewBox="0 0 43 43" fill="none" xmlns="http://www.w3.org/2000/svg">
<g filter="url(#filter0_d_0_1)">
<rect x="3.05713" y="0.0761719" width="36.8794" height="36.8794" rx="15" fill="white"/>
</g>
<g clip-path="url(#clip0_0_1)">
<path d="M14.7353 18.5155C14.7353 18.5155 17.1939 13.5983 21.4965 13.5983C25.7991 13.5983 28.2577 18.5155 28.2577 18.5155C28.2577 18.5155 25.7991 23.4328 21.4965 23.4328C17.1939 23.4328 14.7353 18.5155 14.7353 18.5155Z" stroke="black" stroke-width="1.5" stroke-linecap="round" stroke-linejoin="round"/>
<path d="M21.4965 20.3595C22.5149 20.3595 23.3405 19.5339 23.3405 18.5155C23.3405 17.4971 22.5149 16.6716 21.4965 16.6716C20.4781 16.6716 19.6525 17.4971 19.6525 18.5155C19.6525 19.5339 20.4781 20.3595 21.4965 20.3595Z" stroke="black" stroke-width="1.5" stroke-linecap="round" stroke-linejoin="round"/>
</g>
<defs>
<filter id="filter0_d_0_1" x="0.0571289" y="0.0761719" width="42.8794" height="42.8794" filterUnits="userSpaceOnUse" color-interpolation-filters="sRGB">
<feFlood flood-opacity="0" result="BackgroundImageFix"/>
<feColorMatrix in="SourceAlpha" type="matrix" values="0 0 0 0 0 0 0 0 0 0 0 0 0 0 0 0 0 0 127 0" result="hardAlpha"/>
<feOffset dy="3"/>
<feGaussianBlur stdDeviation="1.5"/>
<feColorMatrix type="matrix" values="0 0 0 0 0.213047 0 0 0 0 0.278116 0 0 0 0 0.404427 0 0 0 0.1 0"/>
<feBlend mode="normal" in2="BackgroundImageFix" result="effect1_dropShadow_0_1"/>
<feBlend mode="normal" in="SourceGraphic" in2="effect1_dropShadow_0_1" result="shape"/>
</filter>
<clipPath id="clip0_0_1">
<rect width="14.7518" height="14.7518" fill="white" transform="translate(14.1206 11.1396)"/>
</clipPath>
</defs>
</svg>
