<svg width="44" height="44" viewBox="0 0 44 44" fill="none" xmlns="http://www.w3.org/2000/svg">
<g filter="url(#filter0_d_1_1013)">
<rect x="3.22717" y="0.897461" width="36.8794" height="36.8794" rx="15" fill="white"/>
</g>
<g clip-path="url(#clip0_1_1013)">
<path d="M27.1003 14.7943C26.7864 14.4802 26.4136 14.231 26.0034 14.061C25.5931 13.8911 25.1534 13.8036 24.7093 13.8036C24.2652 13.8036 23.8255 13.8911 23.4152 14.061C23.005 14.231 22.6322 14.4802 22.3183 14.7943L21.6668 15.4458L21.0152 14.7943C20.3811 14.1601 19.521 13.8039 18.6242 13.8039C17.7274 13.8039 16.8673 14.1601 16.2332 14.7943C15.5991 15.4284 15.2428 16.2885 15.2428 17.1853C15.2428 18.0821 15.5991 18.9422 16.2332 19.5763L16.8847 20.2278L21.6668 25.0099L26.4488 20.2278L27.1003 19.5763C27.4144 19.2624 27.6636 18.8896 27.8336 18.4794C28.0035 18.0691 28.091 17.6294 28.091 17.1853C28.091 16.7412 28.0035 16.3015 27.8336 15.8912C27.6636 15.481 27.4144 15.1082 27.1003 14.7943V14.7943Z" stroke="#121212" stroke-width="1.5" stroke-linecap="round" stroke-linejoin="round"/>
</g>
<defs>
<filter id="filter0_d_1_1013" x="0.227173" y="0.897461" width="42.8794" height="42.8794" filterUnits="userSpaceOnUse" color-interpolation-filters="sRGB">
<feFlood flood-opacity="0" result="BackgroundImageFix"/>
<feColorMatrix in="SourceAlpha" type="matrix" values="0 0 0 0 0 0 0 0 0 0 0 0 0 0 0 0 0 0 127 0" result="hardAlpha"/>
<feOffset dy="3"/>
<feGaussianBlur stdDeviation="1.5"/>
<feColorMatrix type="matrix" values="0 0 0 0 0.213047 0 0 0 0 0.278116 0 0 0 0 0.404427 0 0 0 0.1 0"/>
<feBlend mode="normal" in2="BackgroundImageFix" result="effect1_dropShadow_1_1013"/>
<feBlend mode="normal" in="SourceGraphic" in2="effect1_dropShadow_1_1013" result="shape"/>
</filter>
<clipPath id="clip0_1_1013">
<rect width="14.7518" height="14.7518" fill="white" transform="translate(14.2909 11.9607)"/>
</clipPath>
</defs>
</svg>
