<svg width="25" height="25" viewBox="0 0 25 25" fill="none" xmlns="http://www.w3.org/2000/svg">
<path d="M20.3749 8.85138C20.3871 9.02193 20.3871 9.19252 20.3871 9.36307C20.3871 14.5651 16.4277 20.559 9.1911 20.559C6.96164 20.559 4.89058 19.9133 3.14844 18.7926C3.4652 18.8291 3.76974 18.8413 4.09869 18.8413C5.93826 18.8413 7.63169 18.22 8.98399 17.1601C7.25403 17.1235 5.80427 15.9905 5.30477 14.4311C5.54845 14.4676 5.79209 14.492 6.04795 14.492C6.40124 14.492 6.75456 14.4432 7.08348 14.358C5.28043 13.9925 3.9281 12.4088 3.9281 10.4961V10.4473C4.45194 10.7397 5.06113 10.9225 5.70677 10.9468C4.64687 10.2402 3.95248 9.03412 3.95248 7.66964C3.95248 6.93868 4.14737 6.26863 4.48851 5.68385C6.42558 8.07167 9.33728 9.63104 12.6022 9.80163C12.5413 9.50924 12.5048 9.2047 12.5048 8.90013C12.5048 6.73157 14.2591 4.96509 16.4398 4.96509C17.5728 4.96509 18.5961 5.44021 19.3149 6.20773C20.2043 6.03718 21.057 5.70823 21.8124 5.25748C21.52 6.1712 20.8987 6.93872 20.0825 7.426C20.8743 7.34076 21.6419 7.12142 22.3484 6.81688C21.8125 7.59655 21.1424 8.29094 20.3749 8.85138Z" fill="white"/>
</svg>
