<svg width="25" height="25" viewBox="0 0 25 25" fill="none" xmlns="http://www.w3.org/2000/svg">
<path d="M21.9472 7.07738C21.7264 6.24593 21.0758 5.59111 20.2498 5.36889C18.7524 4.96509 12.7484 4.96509 12.7484 4.96509C12.7484 4.96509 6.74446 4.96509 5.24712 5.36889C4.42106 5.59115 3.77046 6.24593 3.54964 7.07738C3.14844 8.58442 3.14844 11.7287 3.14844 11.7287C3.14844 11.7287 3.14844 14.873 3.54964 16.3801C3.77046 17.2115 4.42106 17.839 5.24712 18.0613C6.74446 18.4651 12.7484 18.4651 12.7484 18.4651C12.7484 18.4651 18.7524 18.4651 20.2498 18.0613C21.0758 17.839 21.7264 17.2115 21.9472 16.3801C22.3484 14.873 22.3484 11.7287 22.3484 11.7287C22.3484 11.7287 22.3484 8.58442 21.9472 7.07738ZM10.7848 14.5835V8.87393L15.8029 11.7288L10.7848 14.5835Z" fill="white"/>
</svg>
